<svg width="100" height="100" viewBox="0 0 100 100" fill="none" xmlns="http://www.w3.org/2000/svg">
<g clip-path="url(#clip0_36_840)">
<path d="M50 8.33301C73 8.33301 91.6667 26.9997 91.6667 49.9997C91.6667 72.9997 73 91.6663 50 91.6663C27 91.6663 8.33337 72.9997 8.33337 49.9997C8.33337 26.9997 27 8.33301 50 8.33301ZM25.0959 64.233C31.2125 73.358 40.3959 79.1663 50.6667 79.1663C60.9334 79.1663 70.1209 73.3622 76.2334 64.233C69.299 57.7522 60.1581 54.153 50.6667 54.1663C41.1738 54.152 32.0313 57.7512 25.0959 64.233ZM50 45.833C53.3152 45.833 56.4947 44.516 58.8389 42.1718C61.1831 39.8276 62.5 36.6482 62.5 33.333C62.5 30.0178 61.1831 26.8384 58.8389 24.4942C56.4947 22.15 53.3152 20.833 50 20.833C46.6848 20.833 43.5054 22.15 41.1612 24.4942C38.817 26.8384 37.5 30.0178 37.5 33.333C37.5 36.6482 38.817 39.8276 41.1612 42.1718C43.5054 44.516 46.6848 45.833 50 45.833Z" fill="#7265FF"/>
</g>
<defs>
<clipPath id="clip0_36_840">
<rect width="100" height="100" fill="white"/>
</clipPath>
</defs>
</svg>
