<svg width="60" height="60" viewBox="0 0 60 60" fill="none" xmlns="http://www.w3.org/2000/svg">
<path d="M12.5 52.5C11.125 52.5 9.9475 52.01 8.9675 51.03C7.9875 50.05 7.49834 48.8733 7.5 47.5V22.5C7.5 21.125 7.99 19.9475 8.97 18.9675C9.95 17.9875 11.1267 17.4983 12.5 17.5H17.5V12.5C17.5 11.125 17.99 9.9475 18.97 8.9675C19.95 7.9875 21.1267 7.49834 22.5 7.5H37.5C38.875 7.5 40.0525 7.99 41.0325 8.97C42.0125 9.95 42.5017 11.1267 42.5 12.5V27.5H47.5C48.875 27.5 50.0525 27.99 51.0325 28.97C52.0125 29.95 52.5017 31.1267 52.5 32.5V47.5C52.5 48.875 52.01 50.0525 51.03 51.0325C50.05 52.0125 48.8733 52.5017 47.5 52.5H32.5V42.5H27.5V52.5H12.5ZM12.5 47.5H17.5V42.5H12.5V47.5ZM12.5 37.5H17.5V32.5H12.5V37.5ZM12.5 27.5H17.5V22.5H12.5V27.5ZM22.5 37.5H27.5V32.5H22.5V37.5ZM22.5 27.5H27.5V22.5H22.5V27.5ZM22.5 17.5H27.5V12.5H22.5V17.5ZM32.5 37.5H37.5V32.5H32.5V37.5ZM32.5 27.5H37.5V22.5H32.5V27.5ZM32.5 17.5H37.5V12.5H32.5V17.5ZM42.5 47.5H47.5V42.5H42.5V47.5ZM42.5 37.5H47.5V32.5H42.5V37.5Z" fill="black"/>
</svg>
