<svg width="21" height="20" viewBox="0 0 21 20" fill="none" xmlns="http://www.w3.org/2000/svg">
<path d="M7.40686 2.41634L14.4381 9.41634C14.5216 9.49968 14.5809 9.58995 14.6159 9.68717C14.651 9.7844 14.6682 9.88856 14.6677 9.99967C14.6677 10.1108 14.6504 10.215 14.6159 10.3122C14.5814 10.4094 14.5222 10.4997 14.4381 10.583L7.40686 17.6038C7.21213 17.7983 6.96871 17.8955 6.67661 17.8955C6.38451 17.8955 6.13414 17.7913 5.9255 17.583C5.71685 17.3747 5.61253 17.1316 5.61253 16.8538C5.61253 16.5761 5.71685 16.333 5.9255 16.1247L12.0596 9.99967L5.9255 3.87467C5.73076 3.68023 5.63339 3.44051 5.63339 3.15551C5.63339 2.87051 5.73772 2.62412 5.94636 2.41634C6.155 2.20801 6.39842 2.10384 6.67661 2.10384C6.9548 2.10384 7.19822 2.20801 7.40686 2.41634Z" fill="#7265FF"/>
</svg>
