<svg width="41" height="40" viewBox="0 0 41 40" fill="none" xmlns="http://www.w3.org/2000/svg">
<path d="M25.2458 4.83366L11.1833 18.8337C11.0164 19.0003 10.8979 19.1809 10.8278 19.3753C10.7577 19.5698 10.7232 19.7781 10.7243 20.0003C10.7243 20.2225 10.7588 20.4309 10.8278 20.6253C10.8967 20.8198 11.0153 21.0003 11.1833 21.167L25.2458 35.2087C25.6353 35.5975 26.1221 35.792 26.7063 35.792C27.2906 35.792 27.7913 35.5837 28.2086 35.167C28.6259 34.7503 28.8345 34.2642 28.8345 33.7087C28.8345 33.1531 28.6259 32.667 28.2086 32.2503L15.9404 20.0003L28.2086 7.75032C28.598 7.36144 28.7928 6.88199 28.7928 6.31199C28.7928 5.74199 28.5841 5.24921 28.1669 4.83366C27.7496 4.41699 27.2627 4.20866 26.7063 4.20866C26.15 4.20866 25.6631 4.41699 25.2458 4.83366Z" fill="white"/>
</svg>
