<svg width="60" height="60" viewBox="0 0 60 60" fill="none" xmlns="http://www.w3.org/2000/svg">
<g clip-path="url(#clip0_9_123)">
<path fill-rule="evenodd" clip-rule="evenodd" d="M13.8825 14.145C14.5055 12.8995 15.4629 11.852 16.6476 11.1199C17.8323 10.3878 19.1974 10 20.59 10H39.41C40.8026 10 42.1677 10.3878 43.3524 11.1199C44.5371 11.852 45.4945 12.8995 46.1175 14.145L49.5825 21.0725C50.1925 20.8225 50.7925 20.5525 51.3825 20.2625C51.9759 19.9661 52.6628 19.9176 53.292 20.1277C53.9211 20.3377 54.4411 20.7891 54.7375 21.3825C55.0339 21.9759 55.0824 22.6628 54.8723 23.292C54.6623 23.9211 54.2109 24.4411 53.6175 24.7375C53.0166 25.005 52.4124 25.265 51.805 25.5175L54.2075 30.325C54.729 31.3674 55.0003 32.517 55 33.6825V40C55.0016 41.0554 54.7796 42.0993 54.3487 43.0627C53.9178 44.0262 53.2877 44.8875 52.5 45.59V48.75C52.5 49.7446 52.1049 50.6984 51.4016 51.4016C50.6984 52.1049 49.7446 52.5 48.75 52.5C47.7554 52.5 46.8016 52.1049 46.0984 51.4016C45.3951 50.6984 45 49.7446 45 48.75V47.5H15V48.75C15 49.7446 14.6049 50.6984 13.9017 51.4016C13.1984 52.1049 12.2446 52.5 11.25 52.5C10.2554 52.5 9.30161 52.1049 8.59835 51.4016C7.89509 50.6984 7.5 49.7446 7.5 48.75V45.59C5.965 44.215 5 42.22 5 40V33.68C5.00047 32.5161 5.27179 31.3684 5.7925 30.3275L8.175 25.5575C7.5725 25.3025 6.975 25.0325 6.3875 24.74C5.79708 24.4398 5.34827 23.9196 5.13783 23.2915C4.92739 22.6634 4.97216 21.9779 5.2625 21.3825C5.40915 21.0886 5.61228 20.8264 5.86029 20.611C6.1083 20.3957 6.39633 20.2313 6.7079 20.1272C7.01948 20.0232 7.3485 19.9816 7.67616 20.0048C8.00382 20.0281 8.32369 20.1156 8.6175 20.2625C9.2075 20.555 9.81 20.8225 10.4175 21.0725L13.8825 14.145ZM22.5 36.25C22.5 37.2446 22.1049 38.1984 21.4017 38.9017C20.6984 39.6049 19.7446 40 18.75 40C17.7554 40 16.8016 39.6049 16.0983 38.9017C15.3951 38.1984 15 37.2446 15 36.25C15 35.2554 15.3951 34.3016 16.0983 33.5983C16.8016 32.8951 17.7554 32.5 18.75 32.5C19.7446 32.5 20.6984 32.8951 21.4017 33.5983C22.1049 34.3016 22.5 35.2554 22.5 36.25ZM41.25 40C42.2446 40 43.1984 39.6049 43.9016 38.9017C44.6049 38.1984 45 37.2446 45 36.25C45 35.2554 44.6049 34.3016 43.9016 33.5983C43.1984 32.8951 42.2446 32.5 41.25 32.5C40.2554 32.5 39.3016 32.8951 38.5983 33.5983C37.8951 34.3016 37.5 35.2554 37.5 36.25C37.5 37.2446 37.8951 38.1984 38.5983 38.9017C39.3016 39.6049 40.2554 40 41.25 40ZM18.355 16.3825C18.5625 15.9673 18.8814 15.6181 19.2762 15.3739C19.6709 15.1297 20.1258 15.0002 20.59 15H39.41C39.8742 15.0002 40.3291 15.1297 40.7238 15.3739C41.1186 15.6181 41.4375 15.9673 41.645 16.3825L44.82 22.7275C40.95 23.8875 35.735 25 30 25C24.265 25 19.05 23.8875 15.1825 22.725L18.355 16.3825Z" fill="black"/>
</g>
<defs>
<clipPath id="clip0_9_123">
<rect width="60" height="60" fill="white"/>
</clipPath>
</defs>
</svg>
