<svg width="48" height="48" viewBox="0 0 48 48" fill="none" xmlns="http://www.w3.org/2000/svg">
<g clip-path="url(#clip0_9_199)">
<path d="M24 4C35.04 4 44 12.96 44 24C44 35.04 35.04 44 24 44C12.96 44 4 35.04 4 24C4 12.96 12.96 4 24 4ZM12.046 30.832C14.982 35.212 19.39 38 24.32 38C29.248 38 33.658 35.214 36.592 30.832C33.2635 27.7212 28.8759 25.9936 24.32 26C19.7634 25.9931 15.375 27.7207 12.046 30.832V30.832ZM24 22C25.5913 22 27.1174 21.3679 28.2426 20.2426C29.3679 19.1174 30 17.5913 30 16C30 14.4087 29.3679 12.8826 28.2426 11.7574C27.1174 10.6321 25.5913 10 24 10C22.4087 10 20.8826 10.6321 19.7574 11.7574C18.6321 12.8826 18 14.4087 18 16C18 17.5913 18.6321 19.1174 19.7574 20.2426C20.8826 21.3679 22.4087 22 24 22V22Z" fill="#7265FF"/>
</g>
<defs>
<clipPath id="clip0_9_199">
<rect width="48" height="48" fill="white"/>
</clipPath>
</defs>
</svg>
