<svg width="68" height="68" viewBox="0 0 68 68" fill="none" xmlns="http://www.w3.org/2000/svg">
<path d="M19.125 8.5C16.3071 8.5 13.6046 9.61942 11.612 11.612C9.61942 13.6046 8.5 16.3071 8.5 19.125V48.875C8.5 51.6929 9.61942 54.3954 11.612 56.388C13.6046 58.3806 16.3071 59.5 19.125 59.5H21.4582C21.7617 57.9609 22.405 56.5089 23.341 55.25H19.125C17.4342 55.25 15.8127 54.5784 14.6172 53.3828C13.4216 52.1873 12.75 50.5658 12.75 48.875V25.5H40.9998C42.9861 23.8975 45.2723 22.7075 47.7243 21.9996C50.1763 21.2918 52.745 21.0803 55.2798 21.3775C57.1242 21.59 58.5905 22.5718 59.5 23.902V19.125C59.5 16.3071 58.3806 13.6046 56.388 11.612C54.3954 9.61942 51.6929 8.5 48.875 8.5H19.125ZM38.964 45.475C38.1094 43.0794 37.8801 40.5054 38.2977 37.9964C38.7153 35.4874 39.7661 33.1265 41.3506 31.1369C42.9352 29.1473 45.0011 27.5948 47.353 26.6262C49.7048 25.6577 52.2649 25.3052 54.791 25.602C55.1652 25.635 55.5169 25.795 55.7875 26.0556C56.0581 26.3162 56.2314 26.6615 56.2785 27.0343C56.3165 27.3475 56.2827 27.6653 56.1796 27.9635C56.0765 28.2618 55.9068 28.5326 55.6835 28.7555L51.5397 32.8993C50.3382 34.1008 49.6632 35.7305 49.6632 37.4298C49.6632 39.129 50.3382 40.7587 51.5397 41.9603C52.7413 43.1618 54.371 43.8368 56.0702 43.8368C57.7695 43.8368 59.3992 43.1618 60.6007 41.9603L64.7445 37.8165C65.8538 36.7072 67.7195 37.1535 67.898 38.709C68.194 41.2348 67.8409 43.7943 66.872 46.1456C65.9031 48.4968 64.3506 50.5621 62.3611 52.1461C60.3716 53.7302 58.011 54.7805 55.5024 55.198C52.9938 55.6154 50.4202 55.3861 48.025 54.5317L36.4395 66.1215C35.8445 66.7165 35.1382 67.1884 34.3609 67.5104C33.5835 67.8324 32.7504 67.9981 31.909 67.9981C31.0676 67.9981 30.2345 67.8324 29.4571 67.5104C28.6798 67.1884 27.9735 66.7165 27.3785 66.1215C26.7835 65.5265 26.3116 64.8202 25.9896 64.0429C25.6676 63.2655 25.5019 62.4324 25.5019 61.591C25.5019 60.7496 25.6676 59.9165 25.9896 59.1391C26.3116 58.3618 26.7835 57.6555 27.3785 57.0605L38.964 45.475Z" fill="#7265FF"/>
</svg>
