<svg width="60" height="60" viewBox="0 0 60 60" fill="none" xmlns="http://www.w3.org/2000/svg">
<path d="M15 45H26.0625V36.6875H32.5V28.375H38.9375V20H45V15H33.9375V23.3125H27.5V31.625H21.0625V40H15V45ZM12.5 52.5C11.125 52.5 9.9475 52.01 8.9675 51.03C7.9875 50.05 7.49834 48.8733 7.5 47.5V12.5C7.5 11.125 7.99 9.9475 8.97 8.9675C9.95 7.9875 11.1267 7.49834 12.5 7.5H47.5C48.875 7.5 50.0525 7.99 51.0325 8.97C52.0125 9.95 52.5017 11.1267 52.5 12.5V47.5C52.5 48.875 52.01 50.0525 51.03 51.0325C50.05 52.0125 48.8733 52.5017 47.5 52.5H12.5Z" fill="black"/>
</svg>
