<svg width="60" height="60" viewBox="0 0 60 60" fill="none" xmlns="http://www.w3.org/2000/svg">
<g clip-path="url(#clip0_9_196)">
<path d="M50 49.9998C50 50.6628 49.7366 51.2987 49.2678 51.7676C48.7989 52.2364 48.163 52.4998 47.5 52.4998H12.5C11.837 52.4998 11.2011 52.2364 10.7322 51.7676C10.2634 51.2987 10 50.6628 10 49.9998V27.9998C10 27.7237 9.77614 27.4998 9.5 27.4998H3.79332C3.3363 27.4998 3.11882 26.9372 3.45699 26.6298L28.3175 4.0298C28.7778 3.61099 29.3777 3.37891 30 3.37891C30.6223 3.37891 31.2222 3.61099 31.6825 4.0298L56.543 26.6298C56.8812 26.9372 56.6637 27.4998 56.2067 27.4998H50.5C50.2239 27.4998 50 27.7237 50 27.9998V49.9998Z" fill="#7265FF"/>
<path d="M38.4398 28.8222C38.4162 28.7428 38.3726 28.6708 38.3132 28.6131C38.2538 28.5554 38.1806 28.5139 38.1005 28.4925C38.0205 28.4707 37.936 28.4704 37.8558 28.4916C37.7755 28.5128 37.7023 28.5548 37.6434 28.6133L35.1364 31.0638L33.3022 30.6967L32.937 28.8692L35.4718 26.3919C35.5312 26.334 35.5745 26.2618 35.5976 26.1821C35.6207 26.1025 35.6227 26.0183 35.6035 25.9377C35.5843 25.857 35.5445 25.7828 35.488 25.7221C35.4315 25.6615 35.3602 25.6165 35.2811 25.5917C34.8204 25.4401 34.3392 25.3599 33.8542 25.354C31.212 25.354 29.0625 27.5035 29.0625 30.1457C29.0625 30.4552 29.0989 30.7686 29.1756 31.1136C28.637 31.5573 28.1252 31.9397 27.5455 32.3728C26.7165 32.9919 25.7773 33.6925 24.496 34.7744C24.1277 35.0918 23.8315 35.4844 23.6274 35.9257C23.4232 36.367 23.3159 36.8469 23.3125 37.3332C23.3125 39.1828 24.8171 40.6873 26.6667 40.6873C27.1535 40.6858 27.6341 40.5778 28.0748 40.3708C28.5155 40.1639 28.9056 39.8631 29.2177 39.4894C30.0661 38.4931 30.8793 37.4674 31.6558 36.4141C32.0793 35.8478 32.4531 35.3494 32.8853 34.8233C33.2303 34.9009 33.5446 34.9373 33.8542 34.9373C36.4963 34.9373 38.6458 32.7878 38.6458 30.1457C38.6414 29.6969 38.572 29.2511 38.4398 28.8222ZM26.6667 38.2915C26.4125 38.2915 26.1687 38.1905 25.989 38.0108C25.8093 37.8311 25.7083 37.5873 25.7083 37.3332C25.7083 37.079 25.8093 36.8352 25.989 36.6555C26.1687 36.4758 26.4125 36.3748 26.6667 36.3748C26.9208 36.3748 27.1646 36.4758 27.3443 36.6555C27.524 36.8352 27.625 37.079 27.625 37.3332C27.625 37.5873 27.524 37.8311 27.3443 38.0108C27.1646 38.1905 26.9208 38.2915 26.6667 38.2915Z" fill="white"/>
</g>
<defs>
<clipPath id="clip0_9_196">
<rect width="60" height="60" fill="white"/>
</clipPath>
</defs>
</svg>
