<svg width="44" height="44" viewBox="0 0 44 44" fill="none" xmlns="http://www.w3.org/2000/svg">
<path d="M37.8193 29.3313C37.6767 29.1595 37.5366 28.9876 37.3991 28.8217C35.5085 26.5349 34.3647 25.1548 34.3647 18.6811C34.3647 15.3295 33.5629 12.5795 31.9825 10.517C30.8172 8.99336 29.2419 7.8375 27.1657 6.98328C27.139 6.96842 27.1151 6.94892 27.0952 6.9257C26.3484 4.42492 24.3048 2.75 22 2.75C19.6951 2.75 17.6524 4.42492 16.9056 6.92312C16.8857 6.94549 16.8621 6.96437 16.836 6.97898C11.9908 8.97359 9.63614 12.8004 9.63614 18.6785C9.63614 25.1548 8.49403 26.5349 6.60169 28.8191C6.46419 28.985 6.32411 29.1534 6.18146 29.3287C5.81296 29.7732 5.57948 30.3138 5.50866 30.8868C5.43784 31.4597 5.53264 32.041 5.78185 32.5617C6.31208 33.6789 7.44216 34.3724 8.73208 34.3724H35.2773C36.5612 34.3724 37.6836 33.6798 38.2155 32.5677C38.4658 32.0469 38.5615 31.4651 38.4913 30.8915C38.4211 30.3179 38.1879 29.7765 37.8193 29.3313ZM22 41.25C23.2418 41.249 24.4602 40.9119 25.526 40.2745C26.5917 39.6371 27.4651 38.7231 28.0534 37.6295C28.0811 37.577 28.0948 37.5184 28.0931 37.4591C28.0915 37.3998 28.0745 37.342 28.0439 37.2912C28.0133 37.2405 27.9701 37.1985 27.9184 37.1693C27.8668 37.1402 27.8085 37.1249 27.7492 37.125H16.2525C16.1931 37.1248 16.1347 37.14 16.0829 37.169C16.0312 37.1981 15.9878 37.2401 15.9571 37.2909C15.9264 37.3417 15.9094 37.3995 15.9077 37.4589C15.906 37.5182 15.9196 37.577 15.9474 37.6295C16.5357 38.7229 17.4089 39.6368 18.4745 40.2743C19.5401 40.9117 20.7583 41.2488 22 41.25Z" fill="#7265FF"/>
</svg>
