<svg width="60" height="60" viewBox="0 0 60 60" fill="none" xmlns="http://www.w3.org/2000/svg">
<g clip-path="url(#clip0_9_120)">
<path d="M52.5 7.5V12.5C52.5 22.165 44.665 30 35 30H32.5V32.5H45V50C45 52.7625 42.7625 55 40 55H20C17.2375 55 15 52.7625 15 50V32.5H27.5V25C27.5 15.335 35.335 7.5 45 7.5H52.5ZM13.75 5C20.0725 5 25.6625 8.1275 29.06 12.9225C26.51 16.275 25 20.4625 25 25V27.5H23.75C13.395 27.5 5 19.105 5 8.75V5H13.75Z" fill="black"/>
</g>
<defs>
<clipPath id="clip0_9_120">
<rect width="60" height="60" fill="white"/>
</clipPath>
</defs>
</svg>
