<svg width="36" height="36" viewBox="0 0 36 36" fill="none" xmlns="http://www.w3.org/2000/svg">
<g clip-path="url(#clip0_65_1032)">
<path d="M6 27H9V30H27V6H9V9H6V4.5C6 4.10218 6.15804 3.72064 6.43934 3.43934C6.72064 3.15804 7.10218 3 7.5 3H28.5C28.8978 3 29.2794 3.15804 29.5607 3.43934C29.842 3.72064 30 4.10218 30 4.5V31.5C30 31.8978 29.842 32.2794 29.5607 32.5607C29.2794 32.842 28.8978 33 28.5 33H7.5C7.10218 33 6.72064 32.842 6.43934 32.5607C6.15804 32.2794 6 31.8978 6 31.5V27ZM9 16.5H19.5V19.5H9V24L1.5 18L9 12V16.5Z" fill="black"/>
</g>
<defs>
<clipPath id="clip0_65_1032">
<rect width="36" height="36" fill="white"/>
</clipPath>
</defs>
</svg>
