<svg width="28" height="28" viewBox="0 0 28 28" fill="none" xmlns="http://www.w3.org/2000/svg">
<g clip-path="url(#clip0_9_99)">
<path d="M27.7441 26.4972L19.2421 17.9432C20.8267 16.0453 21.7818 13.6036 21.7818 10.9375C21.7818 4.89694 16.8848 0 10.8443 0C4.80371 0 -0.0932312 4.89694 -0.0932312 10.9375C-0.0932312 16.9781 4.80371 21.875 10.8443 21.875C13.5887 21.875 16.0956 20.8617 18.0162 19.1914L26.5063 27.7349C26.848 28.0766 27.4024 28.0766 27.744 27.7349C28.0853 27.3932 28.0853 26.8393 27.744 26.4972H27.7441ZM10.8443 20.1394C5.76227 20.1394 1.64233 16.0195 1.64233 10.9375C1.64233 5.8555 5.76227 1.73556 10.8443 1.73556C15.9263 1.73556 20.0462 5.8555 20.0462 10.9375C20.0462 16.0195 15.9263 20.1394 10.8443 20.1394Z" fill="black"/>
</g>
<defs>
<clipPath id="clip0_9_99">
<rect width="28" height="28" fill="white"/>
</clipPath>
</defs>
</svg>
