<svg width="36" height="36" viewBox="0 0 36 36" fill="none" xmlns="http://www.w3.org/2000/svg">
<g clip-path="url(#clip0_36_866)">
<path d="M3.198 20.4451C2.92894 18.8262 2.92894 17.174 3.198 15.5551C4.851 15.5941 6.336 14.8021 6.9135 13.4086C7.491 12.0136 7.0005 10.4026 5.8035 9.26414C6.75812 7.92807 7.92684 6.75884 9.2625 5.80364C10.4025 7.00064 12.0135 7.49114 13.4085 6.91364C14.8035 6.33614 15.594 4.84964 15.5535 3.19814C17.1734 2.92875 18.8266 2.92875 20.4465 3.19814C20.406 4.85114 21.198 6.33614 22.5915 6.91364C23.9865 7.49114 25.5975 7.00064 26.736 5.80364C28.0721 6.75826 29.2413 7.92698 30.1965 9.26264C28.9995 10.4026 28.509 12.0136 29.0865 13.4086C29.664 14.8036 31.1505 15.5941 32.802 15.5536C33.0714 17.1735 33.0714 18.8268 32.802 20.4466C31.149 20.4061 29.664 21.1981 29.0865 22.5916C28.509 23.9866 28.9995 25.5976 30.1965 26.7361C29.2419 28.0722 28.0732 29.2414 26.7375 30.1966C25.5975 28.9996 23.9865 28.5091 22.5915 29.0866C21.1965 29.6641 20.406 31.1506 20.4465 32.8021C18.8266 33.0715 17.1734 33.0715 15.5535 32.8021C15.594 31.1491 14.802 29.6641 13.4085 29.0866C12.0135 28.5091 10.4025 28.9996 9.264 30.1966C7.92793 29.242 6.75869 28.0733 5.8035 26.7376C7.0005 25.5976 7.491 23.9866 6.9135 22.5916C6.336 21.1966 4.8495 20.4061 3.198 20.4466V20.4451ZM18 22.5001C19.1935 22.5001 20.3381 22.026 21.182 21.1821C22.0259 20.3382 22.5 19.1936 22.5 18.0001C22.5 16.8067 22.0259 15.6621 21.182 14.8182C20.3381 13.9742 19.1935 13.5001 18 13.5001C16.8065 13.5001 15.6619 13.9742 14.818 14.8182C13.9741 15.6621 13.5 16.8067 13.5 18.0001C13.5 19.1936 13.9741 20.3382 14.818 21.1821C15.6619 22.026 16.8065 22.5001 18 22.5001Z" fill="black"/>
</g>
<defs>
<clipPath id="clip0_36_866">
<rect width="36" height="36" fill="white"/>
</clipPath>
</defs>
</svg>
