<svg width="50" height="50" viewBox="0 0 50 50" fill="none" xmlns="http://www.w3.org/2000/svg">
<g clip-path="url(#clip0_9_127)">
<path d="M23.5156 0.469207C24.4434 1.03561 25 2.04147 25 3.12546V10.1567H33.6914C34.043 8.80905 35.2637 7.81296 36.7188 7.81296H45.3125C47.9004 7.81296 50 9.91257 50 12.5005C50 15.0883 47.9004 17.188 45.3125 17.188H36.7188C35.2637 17.188 34.043 16.1919 33.6914 14.8442H25V21.8755C25 22.9594 24.4434 23.9653 23.5156 24.5317C22.5879 25.0981 21.4453 25.1567 20.4785 24.6684L1.72852 15.2934C0.664063 14.7661 0 13.6821 0 12.5005C0 11.3188 0.664063 10.2348 1.72852 9.70749L20.4785 0.332489C21.4453 -0.155793 22.5977 -0.097199 23.5156 0.469207ZM28.125 25.0005C28.125 23.2719 29.5215 21.8755 31.25 21.8755H46.875C48.6035 21.8755 50 23.2719 50 25.0005V31.2505C50 32.979 48.6035 34.3755 46.875 34.3755H31.25C29.5215 34.3755 28.125 32.979 28.125 31.2505V25.0005ZM3.125 37.5005H12.5C14.2285 37.5005 15.625 38.8969 15.625 40.6255V46.8755C15.625 48.604 14.2285 50.0005 12.5 50.0005H3.125C1.39648 50.0005 0 48.604 0 46.8755V40.6255C0 38.8969 1.39648 37.5005 3.125 37.5005ZM21.875 37.5005H46.875C48.6035 37.5005 50 38.8969 50 40.6255V46.8755C50 48.604 48.6035 50.0005 46.875 50.0005H21.875C20.1465 50.0005 18.75 48.604 18.75 46.8755V40.6255C18.75 38.8969 20.1465 37.5005 21.875 37.5005Z" fill="black"/>
</g>
<defs>
<clipPath id="clip0_9_127">
<rect width="50" height="50" fill="white"/>
</clipPath>
</defs>
</svg>
