<svg width="200" height="200" viewBox="0 0 200 200" fill="none" xmlns="http://www.w3.org/2000/svg">
<path d="M169.042 59.3248C168.836 58.6345 168.457 58.0084 167.941 57.5065C167.424 57.0046 166.788 56.6436 166.092 56.4582C165.395 56.2686 164.661 56.2658 163.963 56.4502C163.266 56.6345 162.629 56.9994 162.117 57.5082L140.317 78.8165L124.367 75.6248L121.192 59.7332L143.233 38.1915C143.749 37.6884 144.126 37.06 144.327 36.3678C144.527 35.6755 144.545 34.943 144.378 34.2419C144.211 33.5408 143.865 32.895 143.374 32.3677C142.882 31.8403 142.263 31.4494 141.575 31.2332C137.569 29.9147 133.384 29.2178 129.167 29.1665C106.192 29.1665 87.5 47.8582 87.5 70.8332C87.5 73.5248 87.8167 76.2498 88.4833 79.2498C83.8 83.1082 79.35 86.4332 74.3083 90.1998C67.1 95.5832 58.9333 101.675 47.7917 111.083C44.5885 113.843 42.0129 117.257 40.2379 121.094C38.4628 124.932 37.5293 129.105 37.5 133.333C37.5 149.416 50.5833 162.5 66.6667 162.5C70.9002 162.486 75.0796 161.547 78.9117 159.748C82.7438 157.948 86.1358 155.332 88.85 152.083C96.2269 143.42 103.298 134.5 110.05 125.342C113.733 120.417 116.983 116.083 120.742 111.508C123.742 112.183 126.475 112.5 129.167 112.5C152.142 112.5 170.833 93.8082 170.833 70.8332C170.795 66.9307 170.191 63.0543 169.042 59.3248ZM66.6667 141.666C64.4565 141.666 62.3369 140.789 60.7741 139.226C59.2113 137.663 58.3333 135.543 58.3333 133.333C58.3333 131.123 59.2113 129.003 60.7741 127.441C62.3369 125.878 64.4565 125 66.6667 125C68.8768 125 70.9964 125.878 72.5592 127.441C74.122 129.003 75 131.123 75 133.333C75 135.543 74.122 137.663 72.5592 139.226C70.9964 140.789 68.8768 141.666 66.6667 141.666Z" fill="#7265FF"/>
</svg>
